<!DOCTYPE svg PUBLIC "-//W3C//DTD SVG 1.1//EN" "http://www.w3.org/Graphics/SVG/1.1/DTD/svg11.dtd">
<!-- Uploaded to: SVG Repo, www.svgrepo.com, Transformed by: SVG Repo Mixer Tools -->
<svg width="800px" height="800px" viewBox="-102.4 -102.4 1228.80 1228.80" class="icon" version="1.1" xmlns="http://www.w3.org/2000/svg" fill="#121212" stroke="#121212" transform="rotate(0)matrix(1, 0, 0, 1, 0, 0)">
<g id="SVGRepo_bgCarrier" stroke-width="0">
<path transform="translate(-102.4, -102.4), scale(38.4)" d="M16,26.452717373613268C18.471683534405948,26.471196609013802,20.78216552753951,25.532476861568362,22.795388482323776,24.09842863688268C24.981168951522562,22.541465164974003,27.007546343713944,20.6492682431703,27.762578855112636,18.074060014867243C28.58239439678261,15.277894688571196,28.466692963627136,12.16678487860211,27.038296442047283,9.627036577789116C25.599537099252817,7.068862750748757,23.019645710365758,5.236124535085006,20.163123325533693,4.5619126686913525C17.518851239655294,3.9377972660817817,15.039106606868053,5.4373528252105165,12.425063338471947,6.177942246471179C9.499383155337938,7.006822097014142,6.023687217626442,6.7793163075872975,4.080542861164513,9.118298212299116C1.9975699607785478,11.62559310565375,1.1742083444041338,15.347702781837759,2.2512358762191607,18.424278066419134C3.270734206306191,21.336518721708558,6.624823814037528,22.441537079272013,9.2893406864566,23.997452345591135C11.410189629627494,25.235898715510526,13.544106574403365,26.43435619100292,16,26.452717373613268" fill="#27443a" strokewidth="0"/>
</g>
<g id="SVGRepo_tracerCarrier" stroke-linecap="round" stroke-linejoin="round"/>
<g id="SVGRepo_iconCarrier">
<path d="M854.7 828.1H169.9c-38.9 0-70.5-31.6-70.5-70.5v-499c0-38.9 31.6-70.5 70.5-70.5h684.7c38.9 0 70.5 31.6 70.5 70.5v499c0.1 38.9-31.5 70.5-70.4 70.5z" fill="#36990021212"/>
<path d="M885.2 258.1c0-16.5-13.5-30-30-30H169.4c-16.5 0-30 13.5-30 30v120.1h745.7V258.1z m-649.7 96.1c-28.2 0-51.2-23-51.2-51.2s23-51.2 51.2-51.2 51.2 23 51.2 51.2-22.9 51.2-51.2 51.2z m281.8-6.8H374.7c-24.1 0-43.7-19.6-43.7-43.7s19.6-43.7 43.7-43.7h142.6c24.1 0 43.7 19.6 43.7 43.7s-19.6 43.7-43.7 43.7z" fill="#369900"/>
<path d="M213.3 752.8h298.8c5.5 0 10-4.5 10-10s-4.5-10-10-10H213.3c-8.5 0-15.4-6.9-15.4-15.4V524.6c0-5.5-4.5-10-10-10s-10 4.5-10 10v192.9c0.1 19.4 15.9 35.3 35.4 35.3z" fill="#73ff46"/>
<path d="M235.5 271.8c-17.2 0-31.2 14-31.2 31.2s14 31.2 31.2 31.2 31.2-14 31.2-31.2-14-31.2-31.2-31.2z" fill="#36990021212"/>
<path d="M235.5 251.8c-28.2 0-51.2 23-51.2 51.2s23 51.2 51.2 51.2 51.2-23 51.2-51.2-22.9-51.2-51.2-51.2z m0 82.4c-17.2 0-31.2-14-31.2-31.2s14-31.2 31.2-31.2 31.2 14 31.2 31.2-14 31.2-31.2 31.2z" fill="#73ff46"/>
<path d="M517.3 280.1H374.7c-13 0-23.7 10.6-23.7 23.7s10.6 23.7 23.7 23.7h142.6c13 0 23.7-10.6 23.7-23.7s-10.7-23.7-23.7-23.7z" fill="#36990021212"/>
<path d="M517.3 260.1H374.7c-24.1 0-43.7 19.6-43.7 43.7s19.6 43.7 43.7 43.7h142.6c24.1 0 43.7-19.6 43.7-43.7s-19.6-43.7-43.7-43.7z m0 67.3H374.7c-13 0-23.7-10.6-23.7-23.7s10.6-23.7 23.7-23.7h142.6c13 0 23.7 10.6 23.7 23.7s-10.7 23.7-23.7 23.7z" fill="#73ff46"/>
<path d="M855.2 188.1H169.4c-38.6 0-70 31.4-70 70v500c0 38.6 31.4 70 70 70h685.7c38.6 0 70-31.4 70-70v-500c0.1-38.6-31.3-70-69.9-70z m30 570c0 16.5-13.5 30-30 30H169.4c-16.5 0-30-13.5-30-30V398.2h745.7v359.9z m0-379.9H139.5V258.1c0-16.5 13.5-30 30-30h685.7c16.5 0 30 13.5 30 30v120.1z" fill="#73ff46"/>
<path d="M459.9 624.6l-114.3-45.3 114.3-43.7v-46.5L296.1 560v39.5l163.8 71.2zM568.7 454.8h-34.4L475.1 702h33.8zM747.9 560.3l-164-70.9v45.8l114.4 44.5-114.4 45v46.2l164-71.4z" fill="#73ff46"/>
</g>
</svg>